<svg width="51" height="51" viewBox="0 0 51 51" fill="none" xmlns="http://www.w3.org/2000/svg">
<g clip-path="url(#clip0_246_38)">
<circle cx="25.5" cy="25.5" r="25.5" fill="#00B0FF"/>
<path fill-rule="evenodd" clip-rule="evenodd" d="M34.8159 16.6841C33.9211 15.7893 32.781 15.384 31.3363 15.1898C29.9248 15 28.1158 15 25.8074 15H25.75H24.75H24.7048C22.8683 15 21.4286 15 20.2865 15.1237C19.1209 15.25 18.1766 15.5123 17.3702 16.0982C16.8821 16.4528 16.4528 16.8821 16.0982 17.3702C15.5123 18.1766 15.25 19.1209 15.1237 20.2865C15 21.4286 15 22.8682 15 24.7048V24.75V24.7952C15 26.6318 15 28.0714 15.1237 29.2135C15.25 30.3791 15.5123 31.3234 16.0982 32.1298C16.4528 32.6179 16.8821 33.0472 17.3702 33.4018C18.1766 33.9877 19.1209 34.25 20.2865 34.3763C21.4286 34.5 22.8682 34.5 24.7047 34.5H24.75H28.7483C29.3777 34.5 29.6314 34.5012 29.8753 34.5307C30.2976 34.5818 30.7099 34.696 31.0984 34.8695C31.3227 34.9697 31.5408 35.0991 32.0806 35.423L32.1038 35.4369C32.524 35.6891 32.8724 35.8981 33.1602 36.045C33.449 36.1924 33.7584 36.3217 34.092 36.3452C34.9939 36.4086 35.8463 35.9261 36.2559 35.12C36.4074 34.8218 36.4557 34.49 36.4779 34.1665C36.5 33.8441 36.5 33.4379 36.5 32.9478V32.9208V25.75V25.6926C36.5 23.3842 36.5 21.5752 36.3103 20.1637C36.116 18.719 35.7107 17.579 34.8159 16.6841ZM20.75 21C20.3358 21 20 21.3358 20 21.75C20 22.1642 20.3358 22.5 20.75 22.5H28.75C29.1642 22.5 29.5 22.1642 29.5 21.75C29.5 21.3358 29.1642 21 28.75 21H20.75ZM20 25.75C20 25.3358 20.3358 25 20.75 25H24.75C25.1642 25 25.5 25.3358 25.5 25.75C25.5 26.1642 25.1642 26.5 24.75 26.5H20.75C20.3358 26.5 20 26.1642 20 25.75Z" fill="white"/>
</g>
<defs>
<clipPath id="clip0_246_38">
<rect width="51" height="51" fill="white"/>
</clipPath>
</defs>
</svg>
